Coordinates
version=1
nRows=26
nColumns=24
inDegrees=yes

Units are S.I. units (second, meters, Newtons, ...)
Angles are in degrees.

endheader
time	pelvis_tilt	pelvis_list	pelvis_rotation	pelvis_tx	pelvis_ty	pelvis_tz	hip_flexion_r	hip_adduction_r	hip_rotation_r	knee_angle_r	ankle_angle_r	subtalar_angle_r	mtp_angle_r	hip_flexion_l	hip_adduction_l	hip_rotation_l	knee_angle_l	ankle_angle_l	subtalar_angle_l	mtp_angle_l	lumbar_extension	lumbar_bending	lumbar_rotation
      4.20000000	     69.35202655	     -1.71053576	      4.17397905	      0.65298451	      1.01424516	     -0.21585088	    -11.45788749	    -17.10360709	      7.11098087	    -61.27930477	    -21.04740847	     18.23072309	     97.48611738	    -12.48977031	    -14.43298805	      6.46558648	    -54.83918748	     -6.37120342	     34.22395725	     36.22042574	      0.00000000	      0.00000000	      0.00000000
      4.21000000	     69.36007191	     -1.70025545	      4.16580444	      0.65296513	      1.01426088	     -0.21585807	    -11.47361981	    -17.02889867	      7.02594002	    -60.96515294	    -20.89502577	     18.60157563	     97.45581252	    -12.50880240	    -14.41638829	      6.45118229	    -54.84383259	     -6.25994806	     34.29000891	     36.29927118	      0.00000000	      0.00000000	      0.00000000
      4.22000000	     69.35633210	     -1.68054309	      4.15670953	      0.65296227	      1.01427220	     -0.21587005	    -11.48214154	    -16.94126508	      6.90797570	    -60.59278967	    -20.71221238	     19.05805797	     97.43915172	    -12.52588781	    -14.39412482	      6.43493930	    -54.82625941	     -6.14912237	     34.33928221	     36.35694747	      0.00000000	      0.00000000	      0.00000000
      4.23000000	     69.33858583	     -1.65765679	      4.14836741	      0.65299541	      1.01426654	     -0.21592179	    -11.48270654	    -16.85558804	      6.75487199	    -60.16957796	    -20.51125802	     19.57423325	     97.42847379	    -12.53487849	    -14.37249239	      6.41989106	    -54.78825298	     -6.06359582	     34.35713960	     36.37193452	      0.00000000	      0.00000000	      0.00000000
      4.24000000	     69.30735784	     -1.64085185	      4.14501838	      0.65304876	      1.01424837	     -0.21600399	    -11.47772268	    -16.78102946	      6.56943119	    -59.70350654	    -20.30858318	     20.11808599	     97.41367217	    -12.52657222	    -14.35507766	      6.40968463	    -54.74477000	     -6.03493469	     34.33064414	     36.32310948	      0.00000000	      0.00000000	      0.00000000
      4.25000000	     69.26720039	     -1.63551331	      4.15108548	      0.65307052	      1.01422741	     -0.21603221	    -11.47042986	    -16.71113126	      6.35820101	    -59.19996881	    -20.12304398	     20.65566736	     97.38297814	    -12.49053189	    -14.33863491	      6.40740809	    -54.72577222	     -6.09753330	     34.25036965	     36.19251016	      0.00000000	      0.00000000	      0.00000000
      4.26000000	     69.22699865	     -1.63473469	      4.16621022	      0.65304643	      1.01419447	     -0.21598754	    -11.46216594	    -16.61897340	      6.12814023	    -58.65896840	    -19.97327988	     21.15656006	     97.32401593	    -12.41769766	    -14.31354721	      6.41476027	    -54.77312480	     -6.28215877	     34.11182087	     35.96830515	      0.00000000	      0.00000000	      0.00000000
      4.27000000	     69.19683089	     -1.62033807	      4.18254208	      0.65305275	      1.01411531	     -0.21602345	    -11.45249832	    -16.46782111	      5.88401108	    -58.07604867	    -19.87450108	     21.59948718	     97.22503546	    -12.30289465	    -14.26991361	      6.43200683	    -54.93080898	     -6.60793153	     33.91618370	     35.64738634	      0.00000000	      0.00000000	      0.00000000
      4.28000000	     69.18145153	     -1.58016902	      4.18972278	      0.65314006	      1.01399570	     -0.21621561	    -11.44290610	    -16.23820511	      5.62906528	    -57.44801262	    -19.83532050	     21.97636028	     97.07613435	    -12.14651451	    -14.20529077	      6.45838076	    -55.22924521	     -7.07469998	     33.67032804	     35.23693537	      0.00000000	      0.00000000	      0.00000000
      4.29000000	     69.17700416	     -1.52244261	      4.18298326	      0.65320411	      1.01395704	     -0.21636246	    -11.43772605	    -15.94557193	      5.36642052	    -56.77870579	    -19.85546016	     22.29327321	     96.87021937	    -11.95502345	    -14.12753764	      6.49213220	    -55.66828500	     -7.65840534	     33.38617818	     34.75442922	      0.00000000	      0.00000000	      0.00000000
      4.30000000	     69.17592065	     -1.46669084	      4.16539138	      0.65312517	      1.01413308	     -0.21630034	    -11.43806323	    -15.62612054	      5.09748703	    -56.07913589	    -19.92526674	     22.56799705	     96.60347029	    -11.74026085	    -14.05003678	      6.53010689	    -56.20686307	     -8.31197989	     33.07959642	     34.22583419	      0.00000000	      0.00000000	      0.00000000
      4.31000000	     69.17323132	     -1.42705237	      4.14502040	      0.65296959	      1.01442863	     -0.21614431	    -11.43642164	    -15.31049284	      4.82010238	    -55.36319731	    -20.02745077	     22.82485549	     96.27523345	    -11.51799235	    -13.98367190	      6.56780979	    -56.76817737	     -8.97316143	     32.76884164	     33.68218107	      0.00000000	      0.00000000	      0.00000000
      4.32000000	     69.16681748	     -1.40639472	      4.13066658	      0.65289787	      1.01457668	     -0.21608564	    -11.41937441	    -15.01130286	      4.52973625	    -54.64352366	    -20.14044348	     23.08870718	     95.88753505	    -11.30636705	    -13.93246343	      6.60075931	    -57.26392702	     -9.57801321	     32.47264282	     33.15523004	      0.00000000	      0.00000000	      0.00000000
      4.33000000	     69.15418652	     -1.39879535	      4.12735202	      0.65294132	      1.01448501	     -0.21616500	    -11.37524295	    -14.72562076	      4.22250513	    -53.92920459	    -20.24222381	     23.37977961	     95.44452599	    -11.12364550	    -13.89488781	      6.62617222	    -57.62707109	    -10.07535534	     32.20804556	     32.67326472	      0.00000000	      0.00000000	      0.00000000
      4.34000000	     69.13190856	     -1.39504842	      4.13427386	      0.65300755	      1.01430553	     -0.21628759	    -11.30008787	    -14.44352691	      3.89731883	    -53.22523309	    -20.31366316	     23.71050201	     94.95210007	    -10.98406058	    -13.86729479	      6.64323388	    -57.83337939	    -10.43623161	     31.98835383	     32.25791301	      0.00000000	      0.00000000	      0.00000000
      4.35000000	     69.09867860	     -1.38799875	      4.14621534	      0.65303215	      1.01420300	     -0.21636071	    -11.19840786	    -14.15560475	      3.55598716	    -52.53330317	    -20.34088985	     24.08471064	     94.41777232	    -10.89313619	    -13.84607107	      6.65202817	    -57.90178964	    -10.65597112	     31.82156045	     31.92239861	      0.00000000	      0.00000000	      0.00000000
      4.36000000	     69.05791805	     -1.37514115	      4.15657776	      0.65302207	      1.01421142	     -0.21636659	    -11.07960895	    -13.85651467	      3.20204997	    -51.85349909	    -20.31657263	     24.49892243	     93.85073353	    -10.84561068	    -13.82828978	      6.65265514	    -57.87864674	    -10.75023660	     31.70958124	     31.67121357	      0.00000000	      0.00000000	      0.00000000
      4.37000000	     69.01664734	     -1.35797588	      4.16019646	      0.65300764	      1.01426487	     -0.21634062	    -10.95345192	    -13.54528480	      2.83987649	    -51.18613787	    -20.24021745	     24.94487701	     93.26188528	    -10.82764934	    -13.81185697	      6.64540857	    -57.81670056	    -10.74782505	     31.64843792	     31.50099266	      0.00000000	      0.00000000	      0.00000000
      4.38000000	     68.98148589	     -1.33999347	      4.15525645	      0.65301083	      1.01429144	     -0.21631876	    -10.82674960	    -13.22445228	      2.47489901	    -50.53285286	    -20.11759157	     25.41232994	     92.66365430	    -10.82215650	    -13.79570544	      6.63164759	    -57.75805123	    -10.68282891	     31.62934084	     31.40224783	      0.00000000	      0.00000000	      0.00000000
      4.39000000	     68.95499914	     -1.32502822	      4.14382869	      0.65303767	      1.01427694	     -0.21630819	    -10.70197807	    -12.89903943	      2.11432987	    -49.89637120	    -19.95938322	     25.89123467	     92.06947490	    -10.81432849	    -13.77984394	      6.61435323	    -57.72562989	    -10.58796685	     31.64044075	     31.36156015	      0.00000000	      0.00000000	      0.00000000
      4.40000000	     68.93464512	     -1.31567594	      4.13033357	      0.65307082	      1.01424997	     -0.21630144	    -10.57761179	    -12.57461120	      1.76686039	    -49.27917018	    -19.77926068	     26.37286987	     91.49294956	    -10.79509821	    -13.76494651	      6.59764445	    -57.72339746	    -10.48999868	     31.66888618	     31.36383450	      0.00000000	      0.00000000	      0.00000000
      4.41000000	     68.91478712	     -1.31173742	      4.11892931	      0.65307960	      1.01422289	     -0.21630298	    -10.44934233	    -12.25483319	      1.44114075	    -48.68182988	    -19.59159042	     26.84993839	     90.94679462	    -10.76177645	    -13.75159440	      6.58539889	    -57.74249809	    -10.40742327	     31.70278250	     31.39428192	      0.00000000	      0.00000000	      0.00000000
      4.42000000	     68.89054668	     -1.31038722	      4.11218974	      0.65305455	      1.01418598	     -0.21631864	    -10.31149127	    -11.94077229	      1.14439481	    -48.10230098	    -19.40918279	     27.31603154	     90.44174058	    -10.71655337	    -13.73963275	      6.57978817	    -57.76940676	    -10.35017737	     31.73270912	     31.43989575	      0.00000000	      0.00000000	      0.00000000
      4.43000000	     68.86031016	     -1.30821962	      4.11097005	      0.65302679	      1.01414702	     -0.21633649	    -10.15941787	    -11.63209856	      0.88171569	    -47.53729873	    -19.24152179	     27.76502473	     89.98558933	    -10.66403154	    -13.72804010	      6.58055587	    -57.79258721	    -10.32078756	     31.75258326	     31.49031906	      0.00000000	      0.00000000	      0.00000000
      4.44000000	     68.82455931	     -1.30329912	      4.11397735	      0.65302815	      1.01412452	     -0.21634531	     -9.99332852	    -11.32831791	      0.65574484	    -46.98563709	    -19.09391038	     28.19087608	     89.58261894	    -10.60896214	    -13.71538310	      6.58536747	    -57.80585193	    -10.31634845	     31.75981956	     31.53813265	      0.00000000	      0.00000000	      0.00000000
      4.45000000	     68.78407904	     -1.29592782	      4.11806230	      0.65304685	      1.01411388	     -0.21635167	     -9.81982866	    -11.02941529	      0.46706398	    -46.45038723	    -18.96772125	     28.58796292	     89.23345284	    -10.55503537	    -13.70060887	      6.59096056	    -57.80852156	    -10.33075450	     31.75488171	     31.57869177	      0.00000000	      0.00000000	      0.00000000
